<?xml version="1.0" standalone="no"?>
<!DOCTYPE svg PUBLIC "-//W3C//DTD SVG 20010904//EN"
 "http://www.w3.org/TR/2001/REC-SVG-20010904/DTD/svg10.dtd">
<svg version="1.0" xmlns="http://www.w3.org/2000/svg"
 width="261.000000pt" height="261.000000pt" viewBox="0 0 261.000000 261.000000"
 preserveAspectRatio="xMidYMid meet">
<metadata>
Created by potrace 1.11, written by Peter Selinger 2001-2013
</metadata>
<g transform="translate(0.000000,261.000000) scale(0.100000,-0.100000)"
fill="#000000" stroke="none">
<path d="M516 2222 c-26 -12 -46 -32 -65 -63 -54 -94 -197 -342 -223 -387 -58
-98 -65 -144 -32 -208 29 -55 83 -84 158 -84 54 0 61 -3 90 -34 17 -18 91
-138 164 -267 189 -333 251 -442 262 -459 5 -8 31 -54 59 -101 27 -48 65 -102
83 -122 121 -128 325 -160 490 -76 83 43 135 111 293 388 83 145 164 287 180
315 17 29 66 116 110 194 50 88 89 145 103 151 13 6 48 11 78 11 64 0 115 21
145 59 17 21 20 37 17 86 -3 50 -12 75 -50 140 -25 44 -55 96 -66 115 -177
311 -183 320 -242 343 -78 31 -175 -25 -198 -112 -13 -51 -3 -90 39 -156 17
-27 33 -63 36 -80 7 -44 -26 -75 -81 -75 -459 -5 -1181 2 -1191 10 -7 6 -15
24 -19 41 -4 24 3 46 40 109 43 73 46 84 42 131 -6 62 -31 97 -88 127 -53 26
-82 27 -134 4z m1157 -753 c31 -16 57 -50 57 -77 0 -13 -12 -44 -26 -69 -213
-382 -340 -601 -356 -615 -50 -44 -113 -7 -169 98 -33 62 -72 133 -115 207
-19 32 -34 60 -34 62 0 2 -19 36 -43 77 -74 125 -127 227 -127 244 0 9 15 31
34 50 l34 34 362 0 c246 0 368 -4 383 -11z"/>
</g>
</svg>
