<?xml version="1.0" encoding="utf-8"?>
<!-- Generator: Adobe Illustrator 21.0.0, SVG Export Plug-In . SVG Version: 6.00 Build 0)  -->
<svg version="1.1" id="Capa_1" xmlns="http://www.w3.org/2000/svg" xmlns:xlink="http://www.w3.org/1999/xlink" x="0px" y="0px"
	 width="60px" height="19px" viewBox="0 0 60 19" style="enable-background:new 0 0 60 19;" xml:space="preserve">
<style type="text/css">
	.st0{fill:#FFFFFF;}
</style>
<title>C443BA22-FFEE-409D-9D36-D2CFFD8CD750</title>
<desc>Created with sketchtool.</desc>
<g id="Page-1">
	<g id="A1-首页-_x28_1200px-or-more_x29_" transform="translate(-180.000000, -31.000000)">
		<g id="organisms-_x2F_-ui-menu-black-button" transform="translate(135.000000, 15.000000)">
			<g id="logo" transform="translate(15.000000, 10.000000)">
				<path id="_x35_:30:5:30" class="st0" d="M62.5,9c-3,0-5.5,2.5-5.5,5.7v5.9c0,0.7,0.6,1.3,1.2,1.3s1.2-0.6,1.2-1.3v-5.9
					c0.1-1.7,1.4-3,3-3s3,1.3,3,3v5.9c0,0.7,0.6,1.3,1.2,1.3s1.2-0.6,1.2-1.3v-5.9C68,11.5,65.5,9,62.5,9L62.5,9z M88.8,9
					c-0.7,0-1.2,0.6-1.2,1.3v5.9c0,1.1-0.5,2.2-1.5,2.8c-1,0.6-2.1,0.6-3.1,0s-1.5-1.7-1.5-2.8v-5.9c0-0.7-0.6-1.3-1.2-1.3
					S79,9.6,79,10.3v5.9c-0.1,2.1,1,4,2.7,5c1.7,1,3.9,1,5.6,0c1.7-1,2.8-3,2.7-5v-5.9c0-0.3-0.1-0.7-0.4-0.9S89.1,9,88.8,9L88.8,9z
					 M73.5,9c-0.7,0-1.2,0.6-1.2,1.3v10.2c0,0.7,0.6,1.3,1.2,1.3s1.2-0.6,1.2-1.3V10.3C74.7,9.6,74.2,9,73.5,9L73.5,9z M52.8,11.3
					l-2.6-4.5c-0.4-0.7-1.4-1-2.1-0.5c-0.7,0.4-1,1.4-0.6,2.1l0.6,1c0.1,0.2,0.1,0.5,0,0.7c-0.1,0.2-0.4,0.4-0.6,0.4H35.6
					c-0.3,0-0.5-0.1-0.6-0.4c-0.1-0.2-0.1-0.5,0-0.7l0.6-1c0.3-0.5,0.3-1.1,0-1.6S34.7,6,34.2,6c-0.6,0-1.1,0.3-1.3,0.8l-2.6,4.5
					c-0.3,0.5-0.3,1.1,0,1.6c0.3,0.5,0.8,0.8,1.3,0.8h0.6c0.3,0,0.6,0.2,0.8,0.5l5,8.7c0.7,1.3,2.1,2.1,3.6,2.1s2.9-0.8,3.6-2.1
					l5-8.7c0.1-0.3,0.4-0.5,0.8-0.5h0.6c0.6,0,1.1-0.3,1.4-0.8C53.1,12.4,53.1,11.8,52.8,11.3L52.8,11.3z M45.8,15.1l-3.5,6.2
					c-0.2,0.3-0.4,0.5-0.8,0.5c-0.3,0-0.6-0.2-0.8-0.5l-3.5-6.2c-0.2-0.3-0.2-0.7,0-0.9c0.2-0.3,0.5-0.5,0.8-0.5h7
					c0.3,0,0.6,0.2,0.8,0.5S46,14.8,45.8,15.1L45.8,15.1z"/>
			</g>
		</g>
	</g>
</g>
</svg>
